<svg xmlns="http://www.w3.org/2000/svg" >
  <symbol id="floppy" viewBox="0 0 28 28" fill="currentColor">
		<path d="M0.5,0h2.15v2.15h-2.15Z" fill="black" />
		<path d="M0.5,2.15h2.15v2.15h-2.15Z" fill="black" />
		<path d="M0.5,4.31h2.15v2.15h-2.15Z" fill="black" />
		<path d="M0.5,6.46h2.15v2.15h-2.15Z" fill="black" />
		<path d="M0.5,8.62h2.15v2.15h-2.15Z" fill="black" />
		<path d="M0.5,10.77h2.15v2.15h-2.15Z" fill="black" />
		<path d="M0.5,12.92h2.15v2.15h-2.15Z" fill="black" />
		<path d="M0.5,15.08h2.15v2.15h-2.15Z" fill="black" />
		<path d="M0.5,17.23h2.15v2.15h-2.15Z" fill="black" />
		<path d="M0.5,19.38h2.15v2.15h-2.15Z" fill="black" />
		<path d="M0.5,21.54h2.15v2.15h-2.15Z" fill="black" />
		<path d="M0.5,23.69h2.15v2.15h-2.15Z" fill="black" />
		<path d="M0.5,25.85h2.15v2.15h-2.15Z" fill="black" />
		<path d="M24.19,0v2.15h-2.15v-2.15Z" fill="black" />
		<path d="M22.04,0v2.15h-2.15v-2.15Z" fill="black" />
		<path d="M19.88,0v2.15h-2.15v-2.15Z" fill="black" />
		<path d="M17.73,0v2.15h-2.15l0,-2.15Z" fill="black" />
		<path d="M15.58,0v2.15h-2.15v-2.15Z" fill="black" />
		<path d="M13.42,0l0,2.15h-2.15v-2.15Z" fill="black" />
		<path d="M11.27,0v2.15h-2.15v-2.15Z" fill="black" />
		<path d="M9.12,0v2.15h-2.15l0,-2.15Z" fill="black" />
		<path d="M6.96,0l0,2.15h-2.15v-2.15Z" fill="black" />
		<path d="M4.81,0v2.15h-2.15v-2.15Z" fill="black" />
		<path d="M26.35,2.15v2.15h-2.15v-2.15Z" fill="black" />
		<path d="M6.96,4.31l0,2.15h-2.15l0,-2.15Z" fill="black" />
		<path d="M6.96,2.15v2.15h-2.15l0,-2.15Z" fill="black" />
		<path d="M6.96,6.46l0,2.15h-2.15v-2.15Z" fill="black" />
		<path d="M22.04,4.31v2.15h-2.15v-2.15Z" fill="black" />
		<path d="M22.04,2.15v2.15h-2.15v-2.15Z" fill="black" />
		<path d="M22.04,6.46v2.15h-2.15v-2.15Z" fill="black" />
		<path d="M17.73,4.31v2.15h-2.15v-2.15Z" fill="black" />
		<path d="M17.73,2.15v2.15h-2.15v-2.15Z" fill="black" />
		<path d="M17.73,6.46v2.15h-2.15v-2.15Z" fill="black" />
		<path d="M22.04,8.62v2.15h-2.15v-2.15Z" fill="black" />
		<path d="M19.88,8.62v2.15h-2.15v-2.15Z" fill="black" />
		<path d="M17.73,8.62v2.15h-2.15v-2.15Z" fill="black" />
		<path d="M15.58,8.62v2.15h-2.15v-2.15Z" fill="black" />
		<path d="M13.42,8.62l0,2.15h-2.15l0,-2.15Z" fill="black" />
		<path d="M11.27,8.62v2.15h-2.15v-2.15Z" fill="black" />
		<path d="M9.12,8.62v2.15h-2.15v-2.15Z" fill="black" />
		<path d="M6.96,8.62v2.15h-2.15v-2.15Z" fill="black" />
		<path d="M24.19,15.08v2.15h-2.15v-2.15Z" fill="black" />
		<path d="M22.04,15.08v2.15h-2.15v-2.15Z" fill="black" />
		<path d="M19.88,15.08v2.15h-2.15v-2.15Z" fill="black" />
		<path d="M17.73,15.08v2.15h-2.15v-2.15Z" fill="black" />
		<path d="M15.58,15.08v2.15h-2.15v-2.15Z" fill="black" />
		<path d="M13.42,15.08l0,2.15h-2.15v-2.15Z" fill="black" />
		<path d="M11.27,15.08v2.15h-2.15v-2.15Z" fill="black" />
		<path d="M9.12,15.08v2.15h-2.15v-2.15Z" fill="black" />
		<path d="M6.96,15.08v2.15h-2.15v-2.15Z" fill="black" />
		<path d="M24.19,17.23v2.15h-2.15v-2.15Z" fill="black" />
		<path d="M6.96,17.23v2.15h-2.15v-2.15Z" fill="black" />
		<path d="M24.19,19.38v2.15h-2.15v-2.15Z" fill="black" />
		<path d="M6.96,19.38v2.15h-2.15v-2.15Z" fill="black" />
		<path d="M24.19,21.54v2.15h-2.15v-2.15Z" fill="black" />
		<path d="M6.96,21.54v2.15h-2.15v-2.15Z" fill="black" />
		<path d="M6.96,23.69v2.15h-2.15v-2.15Z" fill="black" />
		<path d="M24.19,23.69v2.15h-2.15v-2.15Z" fill="black" />
		<path d="M26.35,25.85v2.15h-2.15v-2.15Z" fill="black" />
		<path d="M24.19,25.85v2.15h-2.15v-2.15Z" fill="black" />
		<path d="M22.04,25.85v2.15h-2.15v-2.15Z" fill="black" />
		<path d="M19.88,25.85v2.15h-2.15v-2.15Z" fill="black" />
		<path d="M17.73,25.85v2.15h-2.15v-2.15Z" fill="black" />
		<path d="M15.58,25.85v2.15h-2.15v-2.15Z" fill="black" />
		<path d="M13.42,25.85v2.15h-2.15v-2.15Z" fill="black" />
		<path d="M11.27,25.85v2.15h-2.15v-2.15Z" fill="black" />
		<path d="M9.12,25.85v2.15h-2.15v-2.15Z" fill="black" />
		<path d="M6.96,25.85v2.15h-2.15v-2.15Z" fill="black" />
		<path d="M4.81,25.85v2.15h-2.15v-2.15Z" fill="black" />
		<path d="M28.5,28h-2.15v-2.15h2.15Z" fill="black" />
		<path d="M28.5,25.85h-2.15v-2.15h2.15Z" fill="black" />
		<path d="M28.5,23.69h-2.15v-2.15h2.15Z" fill="black" />
		<path d="M28.5,21.54h-2.15v-2.15h2.15Z" fill="black" />
		<path d="M28.5,19.38h-2.15v-2.15h2.15Z" fill="black" />
		<path d="M28.5,17.23h-2.15v-2.15h2.15Z" fill="black" />
		<path d="M28.5,15.08h-2.15v-2.15h2.15Z" fill="black" />
		<path d="M28.5,12.92h-2.15l0,-2.15h2.15Z" fill="black" />
		<path d="M28.5,10.77h-2.15v-2.15h2.15Z" fill="black" />
		<path d="M28.5,8.62h-2.15v-2.15h2.15Z" fill="black" />
		<path d="M28.5,6.46h-2.15v-2.15h2.15Z" fill="black" />
	</symbol>
</svg>